<svg width="58" height="58" viewBox="0 0 58 58" fill="none" xmlns="http://www.w3.org/2000/svg">
<g id="microsoft excel" clip-path="url(#clip0_1517_4295)">
<path id="Path 62" d="M36.2497 3.62445H16.9164C16.2757 3.62445 15.6612 3.87898 15.2081 4.33205C14.755 4.78512 14.5005 5.39961 14.5005 6.04035V16.3113L36.2497 28.9981L47.1243 33.587L57.999 28.9981V16.3113L36.2497 3.62445Z" fill="#21A366"/>
<path id="Path 63" d="M14.5005 16.3125H36.2497V28.9994H14.5005V16.3125Z" fill="#107C41"/>
<path id="Path 64" d="M55.5828 3.62445H36.2495V16.3113H57.9987V6.04035C57.9987 5.39961 57.7442 4.78512 57.2911 4.33205C56.8381 3.87898 56.2236 3.62445 55.5828 3.62445Z" fill="#33C481"/>
<path id="Path 65" d="M36.2497 28.9994H14.5005V51.9584C14.5005 52.2757 14.563 52.5898 14.6844 52.8829C14.8058 53.176 14.9838 53.4424 15.2081 53.6667C15.4324 53.891 15.6988 54.069 15.9919 54.1904C16.285 54.3118 16.5991 54.3743 16.9164 54.3743H55.5843C55.9015 54.3743 56.2157 54.3118 56.5088 54.1904C56.8019 54.069 57.0682 53.891 57.2926 53.6667C57.5169 53.4424 57.6949 53.176 57.8163 52.8829C57.9377 52.5898 58.0002 52.2757 58.0002 51.9584V41.6862L36.2497 28.9994Z" fill="#185C37"/>
<path id="Path 66" d="M36.2495 28.9994H57.9987V41.6862H36.2495V28.9994Z" fill="#107C41"/>
<path id="Path 67" opacity="0.1" d="M30.2057 12.6869H14.5005V47.1242H30.2057C30.846 47.1232 31.46 46.8688 31.9133 46.4166C32.3667 45.9644 32.6227 45.3511 32.6253 44.7107V15.1028C32.6233 14.462 32.3677 13.8481 31.9142 13.3953C31.4608 12.9426 30.8465 12.6878 30.2057 12.6869Z" fill="black"/>
<path id="Path 68" opacity="0.2" d="M28.3971 14.5003H14.5005V48.9376H28.3971C29.0368 48.9357 29.6498 48.6809 30.1024 48.2287C30.555 47.7766 30.8104 47.1639 30.813 46.5242V16.9162C30.8111 16.2761 30.5559 15.6627 30.1033 15.2101C29.6506 14.7574 29.0373 14.5022 28.3971 14.5003Z" fill="black"/>
<path id="Path 69" opacity="0.2" d="M28.3971 14.5003H14.5005V45.3119H28.3971C29.0373 45.31 29.6506 45.0548 30.1033 44.6022C30.5559 44.1495 30.8111 43.5362 30.813 42.896V16.9162C30.8111 16.2761 30.5559 15.6627 30.1033 15.2101C29.6506 14.7574 29.0373 14.5022 28.3971 14.5003Z" fill="black"/>
<path id="Path 70" opacity="0.2" d="M26.5849 14.5003H14.5005V45.3119H26.5849C27.225 45.31 27.8384 45.0548 28.291 44.6022C28.7437 44.1495 28.9989 43.5362 29.0008 42.896V16.9162C28.9989 16.2761 28.7437 15.6627 28.291 15.2101C27.8384 14.7574 27.225 14.5022 26.5849 14.5003Z" fill="black"/>
<path id="Back Plate" d="M2.4159 14.5003H26.5872C27.2279 14.5003 27.8424 14.7548 28.2955 15.2079C28.7485 15.661 29.0031 16.2755 29.0031 16.9162V41.0875C29.0031 41.7282 28.7485 42.3427 28.2955 42.7958C27.8424 43.2488 27.2279 43.5034 26.5872 43.5034H2.4159C2.09833 43.5034 1.78388 43.4408 1.49053 43.3191C1.19718 43.1975 0.930686 43.0192 0.706301 42.7945C0.481916 42.5697 0.304038 42.303 0.182845 42.0094C0.061651 41.7159 -0.000481051 41.4014 2.8044e-06 41.0838V16.9162C2.8044e-06 16.2755 0.254534 15.661 0.707604 15.2079C1.16067 14.7548 1.77517 14.5003 2.4159 14.5003Z" fill="#107C41"/>
<path id="Path 71" d="M6.40332 38.0618L12.2682 28.9736L6.89656 19.937H11.2192L14.1516 25.7136C14.4207 26.2608 14.6064 26.6698 14.7087 26.9405H14.7467C14.9397 26.5029 15.1422 26.0776 15.3541 25.6645L18.4877 19.937H22.4557L16.9454 28.9233L22.5895 38.0618H18.3712L14.9835 31.7159C14.8241 31.4458 14.689 31.1621 14.5798 30.8681H14.5295C14.4307 31.1557 14.2994 31.4311 14.1381 31.6889L10.6572 38.0618H6.40332Z" fill="white"/>
</g>
<defs>
<clipPath id="clip0_1517_4295">
<rect width="58" height="58" fill="white"/>
</clipPath>
</defs>
</svg>
