<svg width="44" height="54" viewBox="0 0 44 54" fill="none" xmlns="http://www.w3.org/2000/svg">
<g id="hovern pdf">
<path id="Vector" d="M39.6 54H4.4C1.97384 54 0 52.0464 0 49.6452V4.35485C0 1.9536 1.97384 1.6044e-05 4.4 1.6044e-05H22.3023C22.8803 -0.00154201 23.4528 0.110393 23.9868 0.32934C24.5208 0.548287 25.0055 0.869897 25.4131 1.27555L42.7112 18.3962C43.1211 18.7995 43.446 19.2793 43.6672 19.8078C43.8885 20.3363 44.0016 20.903 44 21.475V49.6452C44 52.0464 42.0261 54 39.6 54ZM4.4 1.74195C2.94404 1.74195 1.76 2.91384 1.76 4.35485V49.6452C1.76 51.0862 2.94404 52.2581 4.4 52.2581H39.6C41.0559 52.2581 42.24 51.0862 42.24 49.6452V21.475C42.2378 20.7826 41.9601 20.1189 41.4669 19.6277L24.1688 2.5071C23.9242 2.26375 23.6333 2.07083 23.3129 1.93949C22.9926 1.80815 22.649 1.74101 22.3023 1.74195H4.4Z" fill="#FD4233"/>
<path id="Vector_2" d="M35.7325 34.1071C35.7017 33.885 35.5213 33.6063 35.3277 33.419C34.7733 32.879 33.5545 32.5959 31.6977 32.5698C30.4393 32.5568 28.9257 32.6656 27.3329 32.8877C26.6201 32.4827 25.8853 32.0385 25.3089 31.5029C23.7557 30.0701 22.4621 28.08 21.6525 25.8895C21.7053 25.6848 21.7493 25.5063 21.7933 25.3234C21.7933 25.3234 22.6645 20.4111 22.4357 18.7476C22.4049 18.5211 22.3829 18.4558 22.3213 18.2772L22.2465 18.0856C22.0089 17.5413 21.5425 16.9664 20.8121 16.9969L20.3809 16.9839H20.3721C19.5537 16.9839 18.8937 17.3976 18.7177 18.0116C18.1897 19.9451 18.7353 22.8411 19.7253 26.5863L19.4701 27.1959C18.7617 28.9118 17.8729 30.6363 17.0897 32.1561L16.9885 32.3521C16.1613 33.9503 15.4133 35.309 14.7313 36.4587L14.0317 36.8245C13.9789 36.8506 12.7777 37.4821 12.4961 37.6476C10.1069 39.0629 8.52287 40.6655 8.25887 41.9371C8.17527 42.3464 8.23687 42.8647 8.66367 43.1042L9.34127 43.4438C9.63607 43.5876 9.94847 43.6616 10.2653 43.6616C11.9681 43.6616 13.9437 41.5626 16.6673 36.8593C19.8089 35.849 23.3905 35.0042 26.5277 34.5426C28.9169 35.8708 31.8561 36.7984 33.7129 36.7984C34.0429 36.7984 34.3289 36.7679 34.5577 36.7069C34.9141 36.6111 35.2133 36.4108 35.3981 36.1408C35.7589 35.6051 35.8293 34.8648 35.7325 34.1071ZM9.89567 42.3856C10.2037 41.5451 11.4357 39.8816 13.2529 38.4097C13.3673 38.3182 13.6489 38.0569 13.9041 37.813C12.0033 40.8135 10.7317 42.0068 9.89567 42.3856ZM20.6581 17.8548C21.2037 17.8548 21.5161 19.2179 21.5425 20.4982C21.5689 21.7785 21.2653 22.6756 20.8913 23.3419C20.5789 22.3577 20.4293 20.8074 20.4293 19.7927C20.4293 19.7927 20.4073 17.8548 20.6581 17.8548ZM17.4461 35.3351C17.8289 34.6601 18.2249 33.9459 18.6297 33.1926C19.6197 31.3418 20.2445 29.8959 20.7065 28.7071C21.6305 30.3706 22.7833 31.7859 24.1341 32.9182C24.3057 33.0576 24.4861 33.2013 24.6709 33.345C21.9209 33.8806 19.5405 34.5382 17.4461 35.3351ZM34.7953 35.1827C34.6281 35.2829 34.1485 35.3439 33.8405 35.3439C32.8461 35.3439 31.6097 34.8953 29.8805 34.1593C30.5449 34.1114 31.1565 34.0853 31.7021 34.0853C32.7009 34.0853 32.9957 34.0809 33.9769 34.3292C34.9537 34.5774 34.9669 35.0782 34.7953 35.1827Z" fill="#FF402F"/>
</g>
</svg>
