<svg width="512" height="512" viewBox="0 0 512 512" fill="none" xmlns="http://www.w3.org/2000/svg">
<g clip-path="url(#clip0_1513_8082)">
<path d="M490.683 31.998H149.331C146.53 31.998 143.757 32.5497 141.169 33.6216C138.582 34.6934 136.23 36.2645 134.25 38.245C132.269 40.2255 130.698 42.5767 129.626 45.1644C128.555 47.7521 128.003 50.5255 128.003 53.3264V143.996L320.012 200.006L512.022 144.007V53.3264C512.022 50.5246 511.47 47.7502 510.397 45.1619C509.325 42.5735 507.753 40.2218 505.771 38.2411C503.79 36.2605 501.437 34.6896 498.848 33.6184C496.259 32.5472 493.485 31.9966 490.683 31.998Z" fill="#41A5EE"/>
<path d="M512.022 143.996H128.003V255.994L320.012 312.004L512.022 256.005V143.996Z" fill="#2B7CD3"/>
<path d="M512.022 256.006H128.003V368.004L320.012 424.014L512.022 368.015V256.006Z" fill="#185ABD"/>
<path d="M512.022 368.004H128.003V458.674C128.003 461.475 128.555 464.248 129.626 466.836C130.698 469.424 132.269 471.775 134.25 473.755C136.23 475.736 138.582 477.307 141.169 478.379C143.757 479.451 146.53 480.002 149.331 480.002H490.683C493.485 480.004 496.259 479.453 498.848 478.382C501.437 477.311 503.79 475.74 505.771 473.759C507.753 471.778 509.325 469.427 510.397 466.838C511.47 464.25 512.022 461.476 512.022 458.674V368.004Z" fill="#103F91"/>
<path opacity="0.1" d="M266.675 111.998H128.003V416.006H266.675C272.327 415.989 277.742 413.736 281.738 409.74C285.734 405.744 287.986 400.329 288.004 394.678V133.326C287.986 127.675 285.734 122.26 281.738 118.264C277.742 114.268 272.327 112.015 266.675 111.998Z" fill="black"/>
<path opacity="0.2" d="M250.671 128.003H128.003V432.011H250.671C256.324 431.996 261.742 429.745 265.74 425.749C269.739 421.752 271.993 416.336 272.01 410.682V149.331C271.993 143.678 269.739 138.262 265.74 134.265C261.742 130.269 256.324 128.017 250.671 128.003Z" fill="black"/>
<path opacity="0.2" d="M250.671 128.003H128.003V400.002H250.671C256.324 399.988 261.742 397.736 265.74 393.74C269.739 389.743 271.993 384.327 272.01 378.674V149.331C271.993 143.678 269.739 138.262 265.74 134.265C261.742 130.269 256.324 128.017 250.671 128.003Z" fill="black"/>
<path opacity="0.2" d="M234.677 128.003H128.003V400.002H234.677C240.329 399.985 245.744 397.732 249.74 393.736C253.736 389.74 255.988 384.325 256.006 378.674V149.331C255.988 143.68 253.736 138.265 249.74 134.269C245.744 130.273 240.329 128.02 234.677 128.003Z" fill="black"/>
<path d="M21.3283 128.003H234.677C240.334 128.003 245.759 130.25 249.759 134.25C253.758 138.25 256.005 143.675 256.005 149.331V362.68C256.005 368.337 253.758 373.762 249.759 377.761C245.759 381.761 240.334 384.008 234.677 384.008H21.3283C15.6717 384.008 10.2468 381.761 6.24692 377.761C2.24709 373.762 0 368.337 0 362.68V149.331C0 146.53 0.551674 143.757 1.62352 141.169C2.69537 138.582 4.26641 136.23 6.24692 134.25C8.22744 132.269 10.5787 130.698 13.1663 129.626C15.754 128.555 18.5275 128.003 21.3283 128.003Z" fill="#185ABD"/>
<path d="M191.202 336.006H162.412L128.81 225.6L93.6046 336.006H64.8031L32.8052 176.005H61.6066L84.0041 288.003L117.606 179.201H141.607L173.605 288.003L196.002 176.005H223.178L191.202 336.006Z" fill="white"/>
</g>
<defs>
<clipPath id="clip0_1513_8082">
<rect width="512" height="512" fill="white"/>
</clipPath>
</defs>
</svg>
