<?xml version="1.0" encoding="UTF-8"?>
<!DOCTYPE svg PUBLIC "-//W3C//DTD SVG 1.1//EN" "http://www.w3.org/Graphics/SVG/1.1/DTD/svg11.dtd">
<svg xmlns="http://www.w3.org/2000/svg" version="1.1" width="872px" height="555px" style="shape-rendering:geometricPrecision; text-rendering:geometricPrecision; image-rendering:optimizeQuality; fill-rule:evenodd; clip-rule:evenodd" xmlns:xlink="http://www.w3.org/1999/xlink">
<g><path style="opacity:1" fill="#fefefe" d="M -0.5,-0.5 C 290.167,-0.5 580.833,-0.5 871.5,-0.5C 871.5,184.5 871.5,369.5 871.5,554.5C 580.833,554.5 290.167,554.5 -0.5,554.5C -0.5,369.5 -0.5,184.5 -0.5,-0.5 Z"/></g>
<g><path style="opacity:1" fill="#72b4f5" d="M 453.5,181.5 C 454.827,164.995 454.827,148.329 453.5,131.5C 451.827,129.914 449.827,129.247 447.5,129.5C 444.337,127.754 441.004,126.254 437.5,125C 434.101,124.454 430.768,124.787 427.5,126C 371.829,157.835 316.162,189.669 260.5,221.5C 258.254,222.455 255.921,223.122 253.5,223.5C 253.333,241.17 253.5,258.836 254,276.5C 255.346,278.342 257.179,279.342 259.5,279.5C 262.912,281.251 264.245,284.084 263.5,288C 263.029,292.53 261.363,296.53 258.5,300C 259.478,316.131 259.811,332.298 259.5,348.5C 253.5,348.5 247.5,348.5 241.5,348.5C 241.5,333.167 241.5,317.833 241.5,302.5C 243.003,299.479 242.169,297.145 239,295.5C 235.607,287.542 237.44,281.209 244.5,276.5C 245.666,261.178 245.833,245.844 245,230.5C 238.613,227.136 232.947,222.803 228,217.5C 226.973,213.82 227.806,210.653 230.5,208C 237.228,202.941 244.228,198.274 251.5,194C 308.802,161.526 365.802,128.86 422.5,96C 430.957,92.5441 439.29,92.8775 447.5,97C 503.573,129.878 559.906,162.545 616.5,195C 620.017,196.924 623.684,198.591 627.5,200C 630.686,203.182 634.186,206.015 638,208.5C 641.043,212.071 641.21,215.738 638.5,219.5C 633.438,224.029 627.771,227.529 621.5,230C 620.5,231 619.5,232 618.5,233C 592.418,247.557 566.418,262.391 540.5,277.5C 539.667,297.825 539.167,318.158 539,338.5C 537.908,344.221 535.908,349.554 533,354.5C 528.763,358.036 524.263,361.202 519.5,364C 497.5,376.667 475.5,389.333 453.5,402C 445.177,406.997 436.177,408.997 426.5,408C 397.54,392.187 368.873,375.853 340.5,359C 334.276,354.714 330.443,348.881 329,341.5C 328.667,320.5 328.333,299.5 328,278.5C 307.296,266.3 286.462,254.3 265.5,242.5C 264.202,238.285 264.202,234.118 265.5,230C 271.314,226.679 277.147,223.512 283,220.5C 289.908,224.37 297.075,227.87 304.5,231C 312.034,236.601 320.034,241.434 328.5,245.5C 329.216,237.905 332.216,231.405 337.5,226C 366.745,208.545 396.412,191.878 426.5,176C 431.167,175.333 435.833,175.333 440.5,176C 445.116,177.312 449.449,179.145 453.5,181.5 Z"/></g>
<g><path style="opacity:1" fill="#9dc9ef" d="M 447.5,129.5 C 449.827,129.247 451.827,129.914 453.5,131.5C 454.827,148.329 454.827,164.995 453.5,181.5C 453.5,165.167 453.5,148.833 453.5,132.5C 450.911,132.539 448.911,131.539 447.5,129.5 Z"/></g>
<g><path style="opacity:1" fill="#fcfdfd" d="M 484.5,151.5 C 493.055,156.362 501.555,161.362 510,166.5C 510.667,220.5 510.667,274.5 510,328.5C 508.761,333.741 505.928,337.908 501.5,341C 479.314,354.506 456.814,367.339 434,379.5C 413.018,368.422 392.185,356.922 371.5,345C 364.699,340.875 360.199,335.041 358,327.5C 357.333,303.167 357.333,278.833 358,254.5C 361.106,246.395 366.606,240.561 374.5,237C 388.794,229.52 402.794,221.52 416.5,213C 423.862,208.211 431.862,206.545 440.5,208C 453.233,215.699 466.233,222.865 479.5,229.5C 480.209,230.404 481.209,230.737 482.5,230.5C 481.842,203.812 482.509,177.479 484.5,151.5 Z"/></g>
<g><path style="opacity:1" fill="#9dc8e8" d="M 484.5,151.5 C 482.509,177.479 481.842,203.812 482.5,230.5C 481.209,230.737 480.209,230.404 479.5,229.5C 481.491,203.521 482.158,177.188 481.5,150.5C 482.791,150.263 483.791,150.596 484.5,151.5 Z"/></g>
<g><path style="opacity:1" fill="#fafdfd" d="M 539.5,183.5 C 557.294,192.896 574.627,203.063 591.5,214C 591.241,215.261 590.574,216.261 589.5,217C 573.342,225.912 557.342,235.078 541.5,244.5C 539.512,224.527 538.845,204.194 539.5,183.5 Z"/></g>
<g><path style="opacity:1" fill="#80aecc" d="M 539.5,183.5 C 538.845,204.194 539.512,224.527 541.5,244.5C 540.791,245.404 539.791,245.737 538.5,245.5C 538.169,224.66 538.503,203.993 539.5,183.5 Z"/></g>
<g><path style="opacity:1" fill="#7eb5e3" d="M 260.5,221.5 C 259.594,222.965 258.261,223.965 256.5,224.5C 255.167,241.833 255.167,259.167 256.5,276.5C 257.855,277.188 258.855,278.188 259.5,279.5C 257.179,279.342 255.346,278.342 254,276.5C 253.5,258.836 253.333,241.17 253.5,223.5C 255.921,223.122 258.254,222.455 260.5,221.5 Z"/></g>
<g><path style="opacity:1" fill="#030303" d="M 432.5,236.5 C 447.759,244.465 462.759,252.965 477.5,262C 479.025,263.009 480.692,263.509 482.5,263.5C 482.667,279.837 482.5,296.17 482,312.5C 481.562,315.376 480.562,318.043 479,320.5C 464.364,329.99 449.364,338.99 434,347.5C 420.752,340.126 407.585,332.626 394.5,325C 391,322.833 388.167,320 386,316.5C 385.333,300.167 385.333,283.833 386,267.5C 386.707,265.919 387.54,264.419 388.5,263C 403.396,254.392 418.063,245.559 432.5,236.5 Z"/></g>
<g><path style="opacity:1" fill="#afd8f8" d="M 241.5,302.5 C 241.5,317.833 241.5,333.167 241.5,348.5C 247.5,348.5 253.5,348.5 259.5,348.5C 253.355,349.49 247.022,349.823 240.5,349.5C 240.17,333.658 240.504,317.991 241.5,302.5 Z"/></g>
<g><path style="opacity:1" fill="#474747" d="M 141.5,456.5 C 152.988,455.505 164.655,455.172 176.5,455.5C 176.5,459.167 176.5,462.833 176.5,466.5C 169.5,466.5 162.5,466.5 155.5,466.5C 161.979,465.509 168.646,465.176 175.5,465.5C 175.5,462.5 175.5,459.5 175.5,456.5C 164.167,456.5 152.833,456.5 141.5,456.5 Z"/></g>
<g><path style="opacity:1" fill="#090909" d="M 364.5,455.5 C 378.781,452.866 390.281,457.2 399,468.5C 400.128,470.345 400.628,472.345 400.5,474.5C 395.156,474.666 389.823,474.499 384.5,474C 377.639,465.876 370.139,465.376 362,472.5C 356.949,481.372 357.449,489.872 363.5,498C 371.465,503.338 378.465,502.338 384.5,495C 389.823,494.501 395.156,494.334 400.5,494.5C 397.9,504.93 391.233,511.096 380.5,513C 362.146,516.413 350.313,509.246 345,491.5C 342.344,474.475 348.844,462.475 364.5,455.5 Z"/></g>
<g><path style="opacity:1" fill="#4b4b4b" d="M 437.5,456.5 C 440.314,455.835 443.314,455.502 446.5,455.5C 449.913,455.517 452.913,456.184 455.5,457.5C 449.591,456.545 443.591,456.211 437.5,456.5 Z"/></g>
<g><path style="opacity:1" fill="#575757" d="M 535.5,466.5 C 535.5,463.167 535.5,459.833 535.5,456.5C 520.833,456.5 506.167,456.5 491.5,456.5C 491.5,459.833 491.5,463.167 491.5,466.5C 491.167,466.5 490.833,466.5 490.5,466.5C 490.5,462.833 490.5,459.167 490.5,455.5C 505.833,455.5 521.167,455.5 536.5,455.5C 536.815,459.371 536.482,463.038 535.5,466.5 Z"/></g>
<g><path style="opacity:1" fill="#030303" d="M 141.5,456.5 C 152.833,456.5 164.167,456.5 175.5,456.5C 175.5,459.5 175.5,462.5 175.5,465.5C 168.646,465.176 161.979,465.509 155.5,466.5C 155.5,470.5 155.5,474.5 155.5,478.5C 161.5,478.5 167.5,478.5 173.5,478.5C 173.5,482.167 173.5,485.833 173.5,489.5C 167.5,489.5 161.5,489.5 155.5,489.5C 155.5,493.833 155.5,498.167 155.5,502.5C 161.979,503.491 168.646,503.824 175.5,503.5C 175.5,506.833 175.5,510.167 175.5,513.5C 164.167,513.5 152.833,513.5 141.5,513.5C 141.5,494.5 141.5,475.5 141.5,456.5 Z"/></g>
<g><path style="opacity:1" fill="#050505" d="M 228.5,456.5 C 250.129,462.805 257.295,476.805 250,498.5C 245.702,505.565 239.535,510.065 231.5,512C 221.557,513.365 211.557,513.865 201.5,513.5C 201.5,494.5 201.5,475.5 201.5,456.5C 210.5,456.5 219.5,456.5 228.5,456.5 Z"/></g>
<g><path style="opacity:1" fill="#b8b8b8" d="M 274.5,455.5 C 274.5,455.833 274.5,456.167 274.5,456.5C 274.238,470.529 274.571,484.529 275.5,498.5C 274.732,497.737 274.232,496.737 274,495.5C 273.173,481.994 273.34,468.66 274.5,455.5 Z"/></g>
<g><path style="opacity:1" fill="#050505" d="M 275.5,498.5 C 274.571,484.529 274.238,470.529 274.5,456.5C 278.833,456.5 283.167,456.5 287.5,456.5C 287.172,468.678 287.505,480.678 288.5,492.5C 288.544,496.09 290.211,498.59 293.5,500C 298.84,501.534 303.34,500.367 307,496.5C 308.446,482.907 308.946,469.24 308.5,455.5C 313.167,455.5 317.833,455.5 322.5,455.5C 322.667,468.837 322.5,482.171 322,495.5C 317.624,509.286 308.124,515.452 293.5,514C 284.526,512.187 278.526,507.02 275.5,498.5 Z"/></g>
<g><path style="opacity:1" fill="#515151" d="M 274.5,456.5 C 274.5,456.167 274.5,455.833 274.5,455.5C 279.167,455.5 283.833,455.5 288.5,455.5C 288.5,467.833 288.5,480.167 288.5,492.5C 287.505,480.678 287.172,468.678 287.5,456.5C 283.167,456.5 278.833,456.5 274.5,456.5 Z"/></g>
<g><path style="opacity:1" fill="#070707" d="M 437.5,456.5 C 443.591,456.211 449.591,456.545 455.5,457.5C 462.027,475.746 468.36,494.079 474.5,512.5C 469.544,513.494 464.544,513.827 459.5,513.5C 458.645,510.289 457.645,507.122 456.5,504C 449.508,503.5 442.508,503.334 435.5,503.5C 435.105,506.686 434.105,509.686 432.5,512.5C 427.5,513.833 422.5,513.833 417.5,512.5C 424.407,493.768 431.074,475.102 437.5,456.5 Z"/></g>
<g><path style="opacity:1" fill="#040404" d="M 535.5,466.5 C 530.5,466.5 525.5,466.5 520.5,466.5C 520.5,482.167 520.5,497.833 520.5,513.5C 515.833,513.5 511.167,513.5 506.5,513.5C 506.5,497.833 506.5,482.167 506.5,466.5C 501.5,466.5 496.5,466.5 491.5,466.5C 491.5,463.167 491.5,459.833 491.5,456.5C 506.167,456.5 520.833,456.5 535.5,456.5C 535.5,459.833 535.5,463.167 535.5,466.5 Z"/></g>
<g><path style="opacity:1" fill="#000000" d="M 557.5,456.5 C 561.833,456.5 566.167,456.5 570.5,456.5C 570.5,475.5 570.5,494.5 570.5,513.5C 566.167,513.5 561.833,513.5 557.5,513.5C 557.5,494.5 557.5,475.5 557.5,456.5 Z"/></g>
<g><path style="opacity:1" fill="#333333" d="M 557.5,456.5 C 561.97,455.514 566.637,455.181 571.5,455.5C 571.83,475.007 571.497,494.341 570.5,513.5C 570.5,494.5 570.5,475.5 570.5,456.5C 566.167,456.5 561.833,456.5 557.5,456.5 Z"/></g>
<g><path style="opacity:1" fill="#080808" d="M 613.5,455.5 C 640.119,452.956 652.952,464.956 652,491.5C 646.229,507.643 634.729,515.143 617.5,514C 601.856,509.855 593.856,499.689 593.5,483.5C 593.544,474.244 597.211,466.744 604.5,461C 607.564,459.141 610.564,457.308 613.5,455.5 Z"/></g>
<g><path style="opacity:1" fill="#030303" d="M 711.5,491.5 C 712.495,480.012 712.828,468.345 712.5,456.5C 716.833,456.5 721.167,456.5 725.5,456.5C 725.5,475.5 725.5,494.5 725.5,513.5C 720.821,513.666 716.155,513.499 711.5,513C 703.943,501.616 696.61,490.116 689.5,478.5C 689.44,477.957 689.107,477.624 688.5,477.5C 687.501,489.482 687.168,501.482 687.5,513.5C 683.167,513.5 678.833,513.5 674.5,513.5C 674.5,494.167 674.5,474.833 674.5,455.5C 679.179,455.334 683.845,455.501 688.5,456C 696.315,467.813 703.982,479.646 711.5,491.5 Z"/></g>
<g><path style="opacity:1" fill="#2b2b2b" d="M 725.5,456.5 C 721.167,456.5 716.833,456.5 712.5,456.5C 712.828,468.345 712.495,480.012 711.5,491.5C 711.5,479.5 711.5,467.5 711.5,455.5C 716.363,455.181 721.03,455.514 725.5,456.5 Z"/></g>
<g><path style="opacity:1" fill="#7f7f7f" d="M 228.5,456.5 C 219.5,456.5 210.5,456.5 201.5,456.5C 201.5,475.5 201.5,494.5 201.5,513.5C 200.503,494.341 200.17,475.007 200.5,455.5C 210.015,455.173 219.348,455.506 228.5,456.5 Z"/></g>
<g><path style="opacity:1" fill="#787878" d="M 227.5,467.5 C 223.5,467.5 219.5,467.5 215.5,467.5C 215.5,479.167 215.5,490.833 215.5,502.5C 214.505,490.678 214.172,478.678 214.5,466.5C 219.032,466.182 223.366,466.515 227.5,467.5 Z"/></g>
<g><path style="opacity:1" fill="#fafafa" d="M 227.5,467.5 C 232.425,469.257 235.925,472.59 238,477.5C 241.044,495.44 233.544,503.773 215.5,502.5C 215.5,490.833 215.5,479.167 215.5,467.5C 219.5,467.5 223.5,467.5 227.5,467.5 Z"/></g>
<g><path style="opacity:1" fill="#f7f7f7" d="M 618.5,467.5 C 635.875,468.079 641.708,476.745 636,493.5C 630.897,500.962 624.064,503.128 615.5,500C 607.304,492.886 605.471,484.386 610,474.5C 612.441,471.546 615.275,469.213 618.5,467.5 Z"/></g>
<g><path style="opacity:1" fill="#b3b3b3" d="M 490.5,466.5 C 490.833,466.5 491.167,466.5 491.5,466.5C 496.5,466.5 501.5,466.5 506.5,466.5C 506.5,482.167 506.5,497.833 506.5,513.5C 505.504,498.342 505.17,483.009 505.5,467.5C 500.305,467.821 495.305,467.487 490.5,466.5 Z"/></g>
<g><path style="opacity:1" fill="#e1e1e1" d="M 445.5,473.5 C 446.79,474.058 447.623,475.058 448,476.5C 449.974,482.062 451.474,487.729 452.5,493.5C 448.167,493.5 443.833,493.5 439.5,493.5C 440.897,486.644 442.897,479.977 445.5,473.5 Z"/></g>
<g><path style="opacity:1" fill="#464646" d="M 689.5,478.5 C 688.833,490.167 688.167,501.833 687.5,513.5C 687.168,501.482 687.501,489.482 688.5,477.5C 689.107,477.624 689.44,477.957 689.5,478.5 Z"/></g>
<g><path style="opacity:1" fill="#707070" d="M 155.5,502.5 C 162.5,502.5 169.5,502.5 176.5,502.5C 176.815,506.371 176.482,510.038 175.5,513.5C 175.5,510.167 175.5,506.833 175.5,503.5C 168.646,503.824 161.979,503.491 155.5,502.5 Z"/></g>
</svg>
