<?xml version="1.0" encoding="UTF-8"?>
<svg id="Layer_2" data-name="Layer 2" xmlns="http://www.w3.org/2000/svg" viewBox="0 0 49 64">
  <defs>
    <style>
      .cls-1 {
        fill: #fff;
      }

      .cls-1, .cls-2, .cls-3 {
        fill-rule: evenodd;
      }

      .cls-2 {
        fill: #207245;
      }

      .cls-3 {
        fill: #88bc9e;
      }
    </style>
  </defs>
  <g id="Layer_1-2" data-name="Layer 1">
    <g>
      <path class="cls-2" d="M49,16.84V58.95c0,2.79-2.27,5.05-5.07,5.05H5.07c-2.8,0-5.07-2.26-5.07-5.05V5.05C0,2.26,2.27,0,5.07,0h27.03l16.9,16.84Z"/>
      <path class="cls-1" d="M31.61,37.68c-.49,0-.85,.08-1.1,.25-.25,.17-.37,.38-.37,.64s.11,.44,.34,.59c.22,.15,.67,.3,1.33,.47,1.08,.26,1.86,.53,2.32,.79,.46,.26,.81,.59,1.05,.98,.24,.39,.36,.87,.36,1.43,0,.63-.16,1.16-.48,1.61-.32,.45-.77,.79-1.35,1.02-.58,.24-1.25,.35-2,.35-1.99,0-3.35-.55-4.07-1.66l1.74-1.22c.28,.39,.61,.64,.98,.77,.37,.13,.77,.19,1.19,.19,1.11,0,1.67-.32,1.67-.97,0-.28-.16-.5-.47-.66s-.81-.31-1.48-.48c-1.26-.28-2.15-.67-2.67-1.18-.52-.51-.77-1.16-.77-1.97s.32-1.53,.97-2.07c.64-.54,1.59-.81,2.84-.81,.85,0,1.61,.14,2.25,.41,.65,.27,1.15,.68,1.5,1.22l-1.75,1.24c-.42-.64-1.1-.96-2.04-.96Zm-8.33-5.62h2.34v13.47h-2.34v-13.47Zm-4.36,13.47l-1.89-3.02-1.98,3.02h-2.59l3.28-4.69-3.23-4.8h2.73l1.9,3,1.95-3h2.59l-3.28,4.68,3.29,4.81h-2.78Z"/>
      <path class="cls-3" d="M49,15.9v2.1h-13.81c-2.86,0-4.18-2.32-4.18-5.18V0h2.09l15.9,15.9Z"/>
    </g>
  </g>
</svg>